# xmcd
#
# Track frame offsets:
#	150
#	14826
#	34603
#	51455
#	71505
#	89502
#	103633
#	122134
#	140628
#	156079
#	171078
#	188243
#	208364
#	228343
#
# Disc length: 3263 seconds
#
# Revision: 1
# Processed by: cddbd v1.5.1PL2 Copyright (c) Steve Scherf et al.
# Submitted via: audiograbber 1.83.01
#
DISCID=cf0cbd0e
DTITLE=Star Disc - SC132
DYEAR=1900
DGENRE=Karaoke
TTITLE0=Chesney, Kenny - Keg In The Closet
TTITLE1=Paisley, Brad - Alcohol
TTITLE2=Keith, Toby - As Good As I Once Was
TTITLE3=Yearwood, Trisha - Georgia Rain
TTITLE4=Currington, Billy - Must Be Doin' Somethin' Right
TTITLE5=Erika Jo - I Break Things
TTITLE6=Gentry, Montgomery - Something To Be Proud Of
TTITLE7=Evans, Sara - A Real Fine Way To Start
TTITLE8=Larsen, Blaine - Best Man, The
TTITLE9=Cowboy Troy - I Play Chicken With The Train
TTITLE10=Jennings, Shooter - 4th Of July
TTITLE11=Alexander, Jessi - Canyon Prayer
TTITLE12=Rascal Flatts - Skin
TTITLE13=McCoy, Neal - Billy's Got His Beer Goggles On
EXTD=
EXTT0=
EXTT1=
EXTT2=
EXTT3=
EXTT4=
EXTT5=
EXTT6=
EXTT7=
EXTT8=
EXTT9=
EXTT10=
EXTT11=
EXTT12=
EXTT13=
PLAYORDER=
